<?xml version="1.0" encoding="utf-8"?>
<!-- Generator: Adobe Illustrator 22.0.1, SVG Export Plug-In . SVG Version: 6.00 Build 0)  -->
<svg version="1.1" id="Layer_1" xmlns="http://www.w3.org/2000/svg" xmlns:xlink="http://www.w3.org/1999/xlink" x="0px" y="0px"
	 viewBox="0 0 1810.6 311.8" style="enable-background:new 0 0 1810.6 311.8;" xml:space="preserve">
<style type="text/css">
	.st0{fill:#353034;}
</style>
<g>
	<path class="st0" d="M171.7,94l-56.3,0.4l6.1-26.2c0.9-3.5,0.9-6.2,0.2-8.1c-0.7-1.9-1.7-3.3-2.8-4.1c-1.2-0.9-2.9-1.5-5.2-1.7
		c-2.6,0-4.7,0.6-6.3,1.7c-1.6,1.2-3,2.5-4.1,4.1c-1.2,1.6-2,3.1-2.4,4.6c-0.4,1.5-0.8,2.5-1.1,3.1L60.8,244.1v0.4
		c0,0.3-0.1,1.1-0.2,2.4c-0.2,1.3-0.1,2.8,0.2,4.4c0.3,1.6,1,3,2.2,4.1c1.2,1.2,3.1,1.7,5.7,1.7s4.7-0.6,6.3-1.7
		c1.6-1.2,2.9-2.5,3.9-4.1c1-1.6,1.8-3.1,2.4-4.4c0.6-1.3,0.9-2.3,0.9-2.8l6.5-27.9l55.9-0.4l-9.2,41c-1.7,7.6-4.1,14.1-7.2,19.6
		c-3.1,5.5-6.5,10.3-10.5,14.2c-3.9,3.9-8.2,7.1-12.7,9.6c-4.5,2.5-8.8,4.4-12.9,5.9c-3.5,1.5-6.7,2.4-9.6,2.8
		c-2.9,0.4-5.5,0.9-7.9,1.5c-2.6,0.6-4.9,0.9-7,0.9H45.9c-3.5,0-7-0.4-10.5-1.3c-3.2-0.6-6.7-1.5-10.5-2.8
		c-3.8-1.3-7.3-3.3-10.5-5.9c-5.2-3.8-9.3-9.1-12.2-15.9c-2.9-6.8-3.1-16.1-0.4-27.7l45-203v-0.4c0-0.3,0.7-2.5,2-6.8
		c1.3-4.2,3.6-9,7-14.2c3.3-5.2,7.8-10.5,13.3-15.9C74.6,12,81.6,7.7,90,4.5c3.8-1.5,7.6-2.5,11.6-3.3c3.9-0.7,8.4-1.1,13.3-1.1
		h21.4c3.8-0.3,7.4,0,10.9,0.9c3.2,0.6,6.6,1.6,10.3,3.1c3.6,1.5,7.2,3.3,10.7,5.7c4.9,3.8,8.9,9.1,11.8,15.9
		c2.9,6.8,3.1,16.2,0.4,28.2L171.7,94z"/>
	<path class="st0" d="M290.8,257.2c-1.7,7.6-4.2,14.1-7.4,19.6c-3.2,5.5-6.8,10.3-10.9,14.2c-4.1,3.9-8.4,7.1-12.9,9.6
		c-4.5,2.5-8.8,4.4-12.9,5.9c-3.5,1.5-6.7,2.5-9.6,3.1c-2.9,0.6-5.5,1-7.9,1.3c-2.6,0.3-5.1,0.4-7.4,0.4h-21.4
		c-3.8,0-7.4-0.4-10.9-1.3c-3.2-0.6-6.7-1.5-10.5-2.8c-3.8-1.3-7.3-3.3-10.5-5.9c-4.9-3.8-8.9-9.2-11.8-16.2
		c-2.9-7-3.1-16.3-0.4-27.9l46.3-203v-0.4c0.3-0.3,1.1-2.5,2.4-6.8c1.3-4.2,3.6-8.9,7-14.2c3.3-5.2,7.8-10.5,13.3-15.9
		c5.5-5.4,12.7-9.7,21.4-12.9c7-2.6,15.1-3.9,24.4-3.9H293c3.8,0,7.4,0.4,10.9,1.3c3.2,0.6,6.6,1.6,10.3,3.1
		c3.6,1.5,7.1,3.3,10.3,5.7c5.2,3.8,9.3,9.1,12.2,15.9c2.9,6.8,3.1,16.2,0.4,28.2L290.8,257.2z M215.8,244.1c0,0.6-0.1,1.5-0.2,2.8
		c-0.2,1.3-0.1,2.8,0.2,4.4c0.3,1.6,1,3,2.2,4.1c1.2,1.2,3.1,1.7,5.7,1.7c2.6,0,4.7-0.6,6.3-1.7c1.6-1.2,3-2.5,4.1-4.1
		c1.2-1.6,2-3.1,2.6-4.4c0.6-1.3,0.9-2.3,0.9-2.8l39.7-175.9c0.9-3.5,1-6.2,0.4-8.1c-0.6-1.9-1.5-3.3-2.6-4.1
		c-1.2-0.9-2.9-1.5-5.2-1.7c-2.3,0-4.4,0.6-6.1,1.7c-1.7,1.2-3.1,2.5-4.1,4.1c-1,1.6-1.8,3.1-2.4,4.6c-0.6,1.5-1,2.5-1.3,3.1v0.4
		L215.8,244.1z"/>
	<path class="st0" d="M423.6,54.2L407,127.6h77.7l-12.2,54.1h-78.1l-29.2,129.7h-56.3L379,0.1h134.5l-12.2,54.1H423.6z"/>
	<path class="st0" d="M579.4,54.2l-16.6,73.3h77.7l-12.2,54.1h-78.1l-29.3,129.7h-56.3L534.9,0.1h134.5l-12.2,54.1H579.4z"/>
	<path class="st0" d="M802.9,54.2h-68.1l-16.6,73.3h67.7l-12.2,54.1H706l-17.5,76h68.1L744,311.8l-124-0.4L691.2,0.1h124L802.9,54.2
		z"/>
	<path class="st0" d="M953.5,54.2h-68.1l-16.6,73.3h67.7l-12.2,54.1h-67.7l-17.5,76h68.1l-12.7,54.1l-124-0.4L841.8,0.1h124
		L953.5,54.2z"/>
	<path class="st0" d="M1107.3,311.7H928.6l57.5-310h180.3c35,0,58.4,7.5,70.3,22.6c6.5,7.5,9.8,17.8,9.8,30.9c0,5.7-0.6,12-1.8,18.8
		c-2.3,12.4-5.3,23.5-9.1,33.3c-3.8,9.9-9.2,18.3-16.1,25.4c-9.6,10.1-24.4,16.2-44.3,18.2c10.8,1.1,19.6,3.5,26.6,7.2
		c15.2,8.5,23.1,21,23.8,37.5l0.2,5.4c0,7.7-0.9,16.2-2.8,25.4c-4.8,28.6-15.1,49.7-30.9,63.3
		C1174.7,304.4,1146.5,311.7,1107.3,311.7z M1092.5,239.5c5.7,0,9.6-2.6,11.6-7.8c1.9-4.4,3.3-10,4.4-16.8
		c1.2-5.7,1.8-10.4,1.8-14.2V199c-0.3-4.9-3.1-7.4-8.6-7.4h-20.4l-9,47.9H1092.5z M1111.7,124.5c1.7,0,3.9-0.6,6.4-1.8
		s4.5-3.3,5.8-6.4c0.8-1.9,1.5-4.1,2.2-6.6c2.7-10.1,4-18.9,4-26.4c0-1.3-0.1-2.5-0.2-3.6c-0.9-3.1-3.9-4.6-9-4.6h-18l-9.2,49.3
		H1111.7z"/>
	<path class="st0" d="M1403.1,311.7h-189.3l57.5-310h189.3L1403.1,311.7z"/>
	<path class="st0" d="M1732.7,311.7h-318.2l20.6-79.7l178.5-143.7h-128.8l22.4-86.6h303.4l-21,80.9l-181.3,144.5h146.3L1732.7,311.7
		z"/>
</g>
</svg>
